<?xml version="1.0" standalone="no"?>
<!DOCTYPE svg PUBLIC "-//W3C//DTD SVG 1.1//EN" "http://www.w3.org/Graphics/SVG/1.1/DTD/svg11.dtd" >
<svg>
<metadata>
Created by FontForge 20090622 at Fri Nov  9 17:01:03 2018
 By ffonts
Copyright (c) 2017 by Ana Parracho. All rights reserved.
</metadata>
<defs>
<font id="APompadourBoldSample" horiz-adv-x="561" >
  <font-face 
    font-family="A Pompadour Bold Sample"
    font-weight="400"
    font-stretch="normal"
    units-per-em="1000"
    panose-1="2 0 0 0 0 0 0 0 0 0"
    ascent="750"
    descent="-250"
    x-height="500"
    cap-height="700"
    bbox="-74.2053 -251.714 854.305 755"
    underline-thickness="50"
    underline-position="-50"
    unicode-range="U+0020-U+FB02"
  />
<missing-glyph horiz-adv-x="300" 
 />
    <glyph glyph-name="fi" unicode="fi" horiz-adv-x="479" 
d="M314 19v370h-105v-370c0 -11 -9 -19 -19 -19h-79c-10 0 -18 8 -18 19v370h-74c-10 0 -19 8 -19 18v74c0 11 9 19 19 19h74v80c0 106 59 170 170 170c53 0 92 -9 140 -31c9 -5 14 -16 9 -25l-35 -71c-4 -9 -15 -12 -23 -10c-30 10 -57 17 -90 17c-38 0 -55 -21 -55 -58
v-72h202c10 0 18 -8 18 -19v-462c0 -11 -8 -19 -18 -19h-79c-10 0 -18 8 -18 19z" />
    <glyph glyph-name="fl" unicode="fl" horiz-adv-x="489" 
d="M313 19v370h-104v-370c0 -11 -9 -19 -19 -19h-79c-10 0 -18 8 -18 19v370h-74c-10 0 -19 8 -19 18v74c0 11 9 19 19 19h74v80c0 109 63 170 171 170c52 0 105 -12 149 -32c13 -6 16 -16 16 -32v-667c0 -11 -8 -19 -18 -19h-80c-10 0 -18 8 -18 19zM209 500h104v122
c-13 4 -34 8 -49 8c-38 0 -55 -21 -55 -58v-72z" />
    <glyph glyph-name=".notdef" horiz-adv-x="300" 
 />
    <glyph glyph-name="B" unicode="B" horiz-adv-x="541" 
d="M100 19v662c0 10 8 19 19 19h116c107 0 217 -37 217 -177c0 -43 -25 -87 -59 -116c68 -30 123 -98 123 -180c0 -148 -101 -227 -254 -227h-143c-11 0 -19 9 -19 19zM225 316v-193h45c63 0 113 33 113 100c0 48 -36 93 -93 93h-65zM225 576v-135h33c34 0 67 25 67 70
c0 46 -33 65 -74 65h-26z" />
    <glyph glyph-name="C" unicode="C" horiz-adv-x="607" 
d="M551 622l-49 -69c-5 -8 -16 -9 -25 -4c-31 18 -76 34 -120 33c-114 -1 -201 -104 -199 -232c2 -132 80 -233 202 -232c58 1 105 20 153 55c9 7 22 4 28 -5l48 -72c5 -8 3 -19 -5 -25c-73 -55 -138 -80 -223 -80c-204 -2 -333 143 -335 357c-2 181 123 360 323 361
c68 1 135 -13 198 -60c9 -6 10 -18 4 -27z" />
    <glyph glyph-name="D" unicode="D" horiz-adv-x="683" 
d="M100 19v662c0 10 8 19 19 19h202c191 0 337 -145 337 -350s-146 -350 -337 -350h-202c-11 0 -19 9 -19 19zM324 577h-99v-454h99c119 0 201 95 201 227s-82 227 -201 227z" />
    <glyph glyph-name="E" unicode="E" horiz-adv-x="537" 
d="M100 19v662c0 10 9 19 19 19h316c11 0 19 -9 19 -19v-88c0 -10 -8 -19 -19 -19h-211v-136h182c10 0 19 -9 19 -19v-87c0 -10 -9 -19 -19 -19h-182v-189h244c11 0 19 -9 19 -19v-86c0 -10 -8 -19 -19 -19h-349c-10 0 -19 9 -19 19z" />
    <glyph glyph-name="F" unicode="F" horiz-adv-x="494" 
d="M100 19v662c0 10 8 19 19 19h316c10 0 19 -9 19 -19v-86c0 -10 -9 -19 -19 -19l-211 -2v-160h182c11 0 19 -8 19 -19v-85c0 -10 -8 -19 -19 -19l-182 -2v-270c0 -10 -8 -19 -18 -19h-87c-11 0 -19 9 -19 19z" />
    <glyph glyph-name="G" unicode="G" horiz-adv-x="688" 
d="M555 621l-50 -74c-7 -10 -19 -12 -28 -5c-35 26 -72 40 -117 40c-117 0 -203 -114 -203 -232c0 -128 81 -232 202 -232c96 0 158 68 165 157h-186c-10 0 -19 9 -19 19v86c0 11 9 19 19 19h306c10 0 19 -8 19 -19v-37c0 -224 -135 -352 -307 -352
c-195 0 -331 157 -331 359c0 181 126 359 332 359c76 0 139 -20 193 -63c8 -6 10 -17 5 -25z" />
    <glyph glyph-name="H" unicode="H" horiz-adv-x="620" 
d="M394 19l1 270h-170v-270c0 -10 -9 -19 -19 -19h-87c-11 0 -19 9 -19 19v662c0 10 8 19 19 19h87c10 0 19 -9 19 -19l-1 -267h170v267c0 10 9 19 19 19h88c10 0 19 -9 19 -19v-662c0 -10 -9 -19 -19 -19h-88c-10 0 -19 9 -19 19z" />
    <glyph glyph-name="I" unicode="I" horiz-adv-x="325" 
d="M100 19v662c0 10 8 19 19 19h88c10 0 18 -9 18 -19v-662c0 -10 -8 -19 -18 -19h-88c-11 0 -19 9 -19 19z" />
    <glyph glyph-name="J" unicode="J" horiz-adv-x="517" 
d="M35 154l81 43c11 6 22 1 26 -12c11 -39 50 -69 86 -69c45 0 88 30 88 102v463c0 10 9 19 19 19h87c11 0 19 -9 19 -19l1 -459c0 -143 -81 -231 -214 -231c-103 0 -173 62 -202 140c-3 8 2 19 9 23z" />
    <glyph glyph-name="K" unicode="K" horiz-adv-x="548" 
d="M406 19l-150 318l-31 -40v-278c0 -10 -8 -19 -19 -19h-87c-10 0 -19 9 -19 19v662c0 10 9 19 19 19h87c11 0 19 -9 19 -19v-197l159 200c9 11 17 16 31 16h84c17 0 26 -17 16 -30l-169 -223l194 -421c6 -13 -2 -26 -17 -26h-91c-11 0 -20 5 -26 19z" />
    <glyph glyph-name="L" unicode="L" horiz-adv-x="525" 
d="M100 19v662c0 10 8 19 19 19h88c11 0 19 -9 19 -19l-1 -561h256c10 0 19 -8 19 -19v-82c0 -10 -9 -19 -19 -19h-362c-11 0 -19 9 -19 19z" />
    <glyph glyph-name="M" unicode="M" horiz-adv-x="880" 
d="M653 700h71c8 0 17 -8 20 -24l110 -654c2 -13 -6 -22 -19 -22h-94c-9 0 -18 8 -19 16l-65 397l-168 -390c-7 -17 -15 -23 -26 -23h-51c-12 0 -20 6 -25 19l-167 392l-64 -395c-1 -8 -10 -16 -19 -16h-92c-13 0 -21 9 -19 22l110 655c3 15 12 23 20 23h71
c7 0 14 -6 20 -19l193 -460l192 459c6 14 14 20 21 20z" />
    <glyph glyph-name="N" unicode="N" horiz-adv-x="762" 
d="M567 17l-342 419v-417c0 -10 -9 -19 -19 -19h-87c-11 0 -19 9 -19 19v662c0 10 8 19 19 19h46c12 0 20 -4 32 -18l340 -421v420c0 10 8 19 19 19h87c10 0 19 -9 19 -19v-662c0 -10 -9 -19 -19 -19h-46c-12 0 -19 4 -30 17z" />
    <glyph glyph-name="O" unicode="O" horiz-adv-x="712" 
d="M158 350c0 -125 81 -232 201 -232c114 0 196 104 196 232s-82 232 -196 232s-201 -104 -201 -232zM25 350c0 204 139 359 331 359s331 -155 331 -359s-139 -359 -331 -359c-198 0 -331 154 -331 359z" />
    <glyph glyph-name="P" unicode="P" horiz-adv-x="540" 
d="M225 577v-183h64c55 0 92 45 92 94c0 45 -34 89 -83 89h-73zM515 489c0 -135 -113 -219 -226 -219h-64v-251c0 -10 -9 -19 -19 -19h-87c-11 0 -19 9 -19 19v662c0 10 8 19 19 19h179c126 0 217 -94 217 -211z" />
    <glyph glyph-name="Q" unicode="Q" horiz-adv-x="716" 
d="M670 -29h-91c-14 0 -22 3 -30 13l-35 45c-46 -25 -100 -38 -158 -38c-192 0 -331 160 -331 359c0 204 139 359 331 359s332 -155 332 -359c0 -96 -31 -181 -83 -243l81 -106c10 -13 2 -30 -16 -30zM158 350c0 -128 82 -232 201 -232c28 0 54 6 76 15l-97 129
c-10 13 -1 30 16 30h93c14 0 22 -3 32 -16l44 -61c19 36 32 86 32 135c0 133 -79 232 -196 232c-119 0 -201 -99 -201 -232z" />
    <glyph glyph-name="R" unicode="R" horiz-adv-x="573" 
d="M516 491c0 -64 -24 -118 -64 -157c-10 -10 -20 -19 -34 -28l127 -280c6 -13 -2 -26 -17 -26h-88c-16 0 -25 6 -31 19l-114 252h-70v-252c0 -10 -8 -19 -19 -19h-87c-10 0 -19 9 -19 19v662c0 10 9 19 19 19h180c129 0 217 -88 217 -209zM225 577v-182h64
c61 0 92 46 92 95c0 47 -29 87 -82 87h-74z" />
    <glyph glyph-name="S" unicode="S" horiz-adv-x="485" 
d="M256 588c-26 0 -51 -15 -51 -43c0 -46 44 -79 91 -119c70 -60 155 -123 158 -233c2 -123 -86 -201 -206 -202c-88 -2 -156 32 -212 88c-7 6 -7 17 -2 24l53 72c6 9 19 10 28 3c36 -33 83 -61 132 -60c43 1 73 31 73 69c0 47 -61 90 -98 121c-71 59 -152 132 -152 229
c0 106 85 172 176 172c78 0 129 -20 170 -48c7 -5 10 -16 6 -24l-41 -76c-5 -10 -16 -13 -26 -9c-26 15 -57 36 -99 36z" />
    <glyph glyph-name="T" unicode="T" horiz-adv-x="472" 
d="M25 595v86c0 10 8 19 19 19h384c10 0 19 -9 19 -19v-88c0 -10 -9 -19 -19 -19h-131v-555c0 -10 -8 -19 -19 -19h-88c-10 0 -18 9 -18 19l1 557h-129c-11 0 -19 9 -19 19z" />
    <glyph glyph-name="U" unicode="U" horiz-adv-x="603" 
d="M553 681v-354c0 -219 -79 -336 -254 -336c-181 0 -249 118 -249 325v365c0 10 8 19 19 19h87c10 0 19 -9 19 -19v-331c0 -141 20 -232 124 -232c105 0 128 91 128 232l1 331c0 10 9 19 19 19h87c10 0 19 -9 19 -19z" />
    <glyph glyph-name="V" unicode="V" horiz-adv-x="663" 
d="M284 11l-277 663c-6 13 3 26 17 26h94c7 0 15 -6 21 -21l194 -458l189 456c7 17 15 23 22 23h95c14 0 22 -13 17 -26l-277 -663c-3 -5 -11 -11 -18 -11h-60c-7 0 -14 6 -17 11z" />
    <glyph glyph-name="W" unicode="W" horiz-adv-x="852" 
d="M529 14l-105 380l-103 -380c-2 -7 -11 -14 -18 -14h-84c-8 0 -16 6 -18 13l-195 662c-4 14 5 25 18 25h94c10 0 16 -7 20 -22l123 -424l118 432c2 7 10 14 18 14h58c8 0 16 -7 18 -14l120 -431l120 424c4 14 10 21 20 21h95c13 0 22 -11 18 -25l-197 -662
c-2 -7 -10 -13 -18 -13h-84c-8 0 -16 7 -18 14z" />
    <glyph glyph-name="X" unicode="X" horiz-adv-x="531" 
d="M153 683l112 -194l114 195c7 11 15 16 20 16h94c15 0 24 -15 16 -28l-173 -304l192 -340c8 -13 -1 -28 -16 -28h-82c-17 0 -26 5 -32 16l-134 230l-129 -229c-7 -13 -15 -17 -33 -17h-83c-15 0 -23 15 -16 28l190 341l-171 303c-7 13 1 28 16 28h95c6 0 14 -6 20 -17z
" />
    <glyph glyph-name="Y" unicode="Y" horiz-adv-x="514" 
d="M395 700h94c15 0 23 -13 17 -26l-187 -432v-223c0 -10 -8 -19 -19 -19h-87c-10 0 -19 9 -19 19v215l-187 440c-6 13 3 26 17 26h95c6 0 15 -6 21 -20l117 -280l118 282c5 12 13 18 20 18z" />
    <glyph glyph-name="Z" unicode="Z" horiz-adv-x="457" 
d="M68 596v85c0 10 8 19 18 19h317c11 0 19 -9 19 -19v-42l-240 -516h231c10 0 19 -9 19 -19v-85c0 -10 -9 -19 -19 -19h-369c-10 0 -19 9 -19 19v60l231 498h-170c-10 0 -18 9 -18 19z" />
    <glyph glyph-name="a" unicode="a" horiz-adv-x="562" 
d="M396 19v30c-36 -27 -85 -51 -132 -51c-139 0 -239 108 -239 252c0 138 109 252 241 252c46 0 94 -24 130 -51v30c0 11 9 19 19 19h78c11 0 19 -8 19 -19v-462c0 -11 -8 -19 -19 -19h-78c-10 0 -19 8 -19 19zM146 250c0 -71 58 -131 124 -131c71 0 122 60 122 131
s-51 131 -122 131c-66 0 -124 -60 -124 -131z" />
    <glyph glyph-name="b" unicode="b" horiz-adv-x="560" 
d="M165 49v-30c0 -11 -8 -19 -18 -19h-79c-10 0 -18 8 -18 19v712c0 10 8 19 18 19h79c10 0 18 -9 18 -19v-280c37 27 88 51 133 51c142 0 237 -108 237 -252s-104 -252 -239 -252c-46 0 -95 24 -131 51zM415 250c0 71 -52 131 -121 131c-71 0 -124 -60 -124 -131
s45 -134 122 -134c72 0 123 60 123 134z" />
    <glyph glyph-name="c" unicode="c" horiz-adv-x="458" 
d="M408 431l-45 -71c-6 -9 -18 -11 -27 -4c-20 14 -44 25 -72 25c-71 0 -118 -60 -118 -133c0 -74 54 -133 124 -132c32 0 62 14 82 38c8 8 19 7 27 0l58 -56c8 -7 7 -18 0 -26c-42 -45 -102 -74 -168 -74c-138 -1 -244 107 -244 250c0 130 99 252 239 254
c49 0 96 -16 139 -46c8 -5 11 -16 5 -25z" />
    <glyph glyph-name="d" unicode="d" 
d="M395 19v30c-36 -27 -84 -51 -131 -51c-139 0 -239 108 -239 252c0 138 109 252 241 252c46 0 93 -22 129 -51v281c0 10 9 18 19 18h78c11 0 19 -8 19 -18v-713c0 -11 -8 -19 -19 -19h-78c-10 0 -19 8 -19 19zM146 250c0 -74 49 -134 121 -134c71 0 122 63 122 134
s-51 131 -122 131c-69 0 -121 -60 -121 -131z" />
    <glyph glyph-name="e" unicode="e" horiz-adv-x="512" 
d="M466 194h-309c18 -47 59 -79 108 -79c36 0 71 13 94 34c8 6 19 5 26 -1l57 -54c7 -7 7 -18 0 -25c-44 -46 -106 -71 -177 -71c-66 0 -124 25 -167 69c-46 46 -73 113 -73 185c0 138 108 250 241 250c61 0 115 -24 155 -64c34 -32 66 -82 66 -176c0 -17 -1 -33 -3 -52
c-1 -9 -9 -16 -18 -16zM263 385c-55 0 -92 -35 -107 -80h210c-14 43 -49 80 -103 80z" />
    <glyph glyph-name="f" unicode="f" horiz-adv-x="333" 
d="M380 696l-37 -73c-5 -9 -16 -13 -25 -8c-17 9 -35 15 -56 15c-38 0 -53 -30 -53 -70v-60h88c10 0 18 -8 18 -19v-74c0 -10 -8 -18 -18 -18h-88v-370c0 -11 -9 -19 -19 -19h-79c-10 0 -18 8 -18 19v370h-74c-10 0 -19 8 -19 18v74c0 11 9 19 19 19h74v68
c0 109 55 182 169 182c42 0 76 -10 111 -29c8 -5 12 -16 7 -25z" />
    <glyph glyph-name="g" unicode="g" 
d="M89 -141l58 59c8 8 20 7 28 -2c21 -29 60 -48 99 -48c34 0 66 15 88 38c20 21 33 58 33 112v31c-37 -27 -85 -51 -130 -51c-139 0 -240 108 -240 252c0 143 102 252 238 252c43 0 95 -22 132 -51v30c0 11 9 19 19 19h78c11 0 19 -8 19 -19v-407c0 -140 -21 -204 -72 -255
c-44 -44 -100 -69 -165 -69c-72 0 -142 32 -186 84c-6 7 -6 18 1 25zM145 251c0 -74 49 -135 123 -135c78 0 122 60 122 134c0 71 -51 131 -123 131c-71 0 -122 -56 -122 -130z" />
    <glyph glyph-name="h" unicode="h" horiz-adv-x="493" 
d="M168 276l-2 -257c0 -11 -8 -19 -19 -19h-78c-10 0 -19 8 -19 19v712c0 10 9 19 19 19h78c11 0 19 -9 19 -19v-282c39 29 95 53 144 53c91 0 158 -71 158 -166v-317c0 -11 -8 -19 -19 -19h-78c-10 0 -19 8 -19 19v279c0 54 -25 86 -71 86c-59 0 -113 -48 -113 -108z" />
    <glyph glyph-name="i" unicode="i" horiz-adv-x="230" 
d="M57 19v462c0 11 8 19 18 19h79c10 0 19 -8 19 -19v-462c0 -11 -9 -19 -19 -19h-79c-10 0 -18 8 -18 19zM50 637c0 36 29 65 65 65s65 -29 65 -65s-29 -64 -65 -64s-65 28 -65 64z" />
    <glyph glyph-name="j" unicode="j" horiz-adv-x="263" 
d="M-72 -198l37 73c5 9 16 13 25 8c17 -9 31 -13 50 -13c35 0 52 27 52 78v533c0 11 8 19 18 19h79c10 0 19 -8 19 -19v-543c0 -120 -57 -188 -168 -188c-42 0 -70 8 -105 27c-8 5 -12 16 -7 25zM84 637c0 36 28 65 64 65c37 0 65 -29 65 -65s-28 -64 -65 -64
c-36 0 -64 28 -64 64z" />
    <glyph glyph-name="k" unicode="k" horiz-adv-x="469" 
d="M343 12l-155 206l-22 -22v-177c0 -11 -8 -19 -19 -19h-78c-10 0 -19 8 -19 19v712c0 10 9 19 19 19h78c11 0 19 -9 19 -19v-392l172 161h98c18 0 25 -19 13 -31l-175 -175l191 -264c9 -13 2 -30 -15 -30h-89c-3 0 -12 4 -18 12z" />
    <glyph glyph-name="l" unicode="l" horiz-adv-x="236" 
d="M60 19v713c0 10 9 18 19 18h78c11 0 19 -8 19 -18v-713c0 -11 -8 -19 -19 -19h-78c-10 0 -19 8 -19 19z" />
    <glyph glyph-name="m" unicode="m" horiz-adv-x="795" 
d="M168 276l-2 -257c0 -11 -8 -19 -19 -19h-78c-10 0 -19 8 -19 19v462c0 11 9 19 19 19h78c11 0 19 -8 19 -19v-37c40 33 91 58 140 58c47 0 101 -28 131 -75c46 46 106 75 166 75c91 0 167 -68 167 -166v-317c0 -11 -8 -19 -19 -19h-78c-10 0 -19 8 -19 19v279
c0 54 -25 86 -71 86c-59 0 -113 -48 -113 -108l-2 -257c0 -11 -8 -19 -19 -19h-78c-10 0 -19 8 -19 19v279c0 54 -25 86 -71 86c-59 0 -113 -48 -113 -108z" />
    <glyph glyph-name="n" unicode="n" horiz-adv-x="495" 
d="M168 276l-2 -257c0 -11 -8 -19 -19 -19h-78c-10 0 -19 8 -19 19v462c0 11 9 19 19 19h78c11 0 19 -8 19 -19v-37c39 32 93 58 142 58c94 0 162 -71 162 -166v-317c0 -11 -8 -19 -19 -19h-78c-10 0 -19 8 -19 19v279c0 54 -27 86 -73 86c-59 0 -113 -48 -113 -108z" />
    <glyph glyph-name="o" unicode="o" horiz-adv-x="532" 
d="M25 250c0 141 107 252 242 252s240 -111 240 -252s-106 -252 -241 -252s-241 111 -241 252zM146 250c0 -74 51 -134 120 -134c70 0 121 60 121 134s-51 134 -121 134c-69 0 -120 -60 -120 -134z" />
    <glyph glyph-name="p" unicode="p" horiz-adv-x="560" 
d="M165 481v-30c37 27 90 51 134 51c136 0 236 -108 236 -251c0 -144 -100 -253 -239 -253c-45 0 -94 22 -131 51v-281c0 -10 -8 -18 -18 -18h-79c-10 0 -18 8 -18 18v713c0 11 8 19 18 19h79c10 0 18 -8 18 -19zM415 251c0 74 -50 130 -121 130c-74 0 -124 -57 -124 -131
s50 -134 124 -134c69 0 121 61 121 135z" />
    <glyph glyph-name="q" unicode="q" 
d="M395 451v30c0 11 9 19 19 19h78c11 0 19 -8 19 -19v-713c0 -10 -8 -18 -19 -18h-78c-10 0 -19 8 -19 18v281c-37 -27 -86 -51 -131 -51c-139 0 -239 109 -239 253c0 143 101 251 237 251c43 0 96 -21 133 -51zM146 251c0 -74 54 -134 122 -134c72 0 123 59 123 133
c0 71 -49 131 -121 131c-71 0 -124 -56 -124 -130z" />
    <glyph glyph-name="r" unicode="r" horiz-adv-x="352" 
d="M376 464l-28 -76c-4 -10 -15 -15 -25 -10c-11 5 -27 10 -44 10c-58 0 -111 -52 -111 -112l-2 -257c0 -11 -8 -19 -18 -19h-79c-10 0 -19 8 -19 19v462c0 11 9 19 19 19h79c10 0 18 -8 18 -19v-27c38 28 83 48 133 48c27 0 49 -5 68 -15c8 -5 12 -15 9 -23z" />
    <glyph glyph-name="s" unicode="s" horiz-adv-x="391" 
d="M260 292c47 -34 105 -77 106 -151c0 -36 -13 -74 -43 -101c-35 -33 -68 -45 -124 -45c-53 0 -118 29 -168 70c-7 6 -8 17 -2 25l46 65c6 8 17 9 26 3c30 -22 65 -51 106 -51c20 0 40 12 40 36c0 16 -34 42 -65 63c-26 17 -52 38 -78 64c-33 33 -50 63 -50 107
c0 81 75 128 151 128c40 0 81 -11 118 -31c8 -5 11 -16 7 -25l-33 -68c-4 -9 -14 -14 -23 -10c-29 14 -48 22 -67 22c-15 0 -32 -8 -32 -19c0 -12 4 -22 16 -31c16 -13 32 -24 69 -51z" />
    <glyph glyph-name="t" unicode="t" horiz-adv-x="344" 
d="M15 407v74c0 11 8 19 18 19h74v131c0 11 9 19 19 19h78c11 0 19 -8 19 -19v-131h88c10 0 18 -8 18 -19v-74c0 -10 -8 -18 -18 -18h-88v-370c0 -11 -8 -19 -19 -19h-78c-10 0 -19 8 -19 19v370h-74c-10 0 -18 8 -18 18z" />
    <glyph glyph-name="u" unicode="u" horiz-adv-x="467" 
d="M345 500h78c10 0 19 -8 19 -19v-216c0 -108 -24 -171 -68 -213c-35 -34 -83 -54 -141 -54c-62 0 -112 18 -148 55c-39 39 -60 97 -60 209v219c0 11 8 19 19 19h78c11 0 19 -8 19 -19v-239c0 -52 11 -83 29 -99c17 -16 39 -24 63 -24c25 0 51 8 69 27c14 15 24 47 24 96
v239c0 11 8 19 19 19z" />
    <glyph glyph-name="v" unicode="v" horiz-adv-x="492" 
d="M485 474l-194 -463c-2 -5 -11 -11 -17 -11h-56c-6 0 -14 6 -16 11l-195 463c-5 13 3 26 17 26h88c6 0 15 -6 21 -21l116 -272l111 274c5 13 14 19 20 19h88c14 0 23 -13 17 -26z" />
    <glyph glyph-name="w" unicode="w" horiz-adv-x="824" 
d="M817 474l-195 -463c-2 -5 -11 -11 -17 -11h-50c-6 0 -15 6 -17 11l-127 293l-125 -293c-2 -5 -11 -11 -17 -11h-50c-7 0 -15 6 -17 11l-195 463c-6 13 3 26 17 26h87c7 0 14 -6 20 -19l116 -276l117 275c6 14 14 20 21 20h54c7 0 15 -6 21 -20l120 -274l114 275
c5 13 13 19 19 19h87c14 0 23 -13 17 -26z" />
    <glyph glyph-name="x" unicode="x" horiz-adv-x="457" 
d="M39 500h93c7 0 13 -5 20 -16l79 -117l74 117c7 11 13 16 21 16h93c15 0 24 -16 15 -29l-133 -207l147 -235c8 -13 0 -29 -15 -29h-93c-10 0 -14 5 -20 15l-91 148l-91 -147c-7 -11 -12 -16 -20 -16h-93c-16 0 -24 16 -16 29l149 233l-135 209c-8 13 0 29 16 29z" />
    <glyph glyph-name="y" unicode="y" horiz-adv-x="492" 
d="M485 474l-303 -705c-6 -14 -15 -19 -25 -19h-84c-14 0 -22 12 -16 25l121 285l-171 414c-5 13 3 26 17 26h88c9 0 15 -6 21 -20l113 -271l115 272c5 13 10 19 19 19h88c14 0 23 -13 17 -26z" />
    <glyph glyph-name="z" unicode="z" horiz-adv-x="428" 
d="M53 407v74c0 11 8 19 19 19h308c10 0 19 -8 19 -19v-41l-208 -329h194c10 0 18 -8 18 -18v-74c0 -11 -8 -19 -18 -19h-341c-10 0 -19 8 -19 19v47l205 323h-158c-11 0 -19 8 -19 18z" />
    <glyph glyph-name="zero" unicode="0" horiz-adv-x="552" 
d="M25 347c0 206 101 353 255 353c153 0 247 -147 247 -353c0 -207 -99 -352 -253 -352s-249 145 -249 352zM145 347c0 -136 48 -227 131 -227c82 0 130 91 130 227c0 135 -46 232 -128 232c-83 0 -133 -97 -133 -232z" />
    <glyph glyph-name="one" unicode="1" horiz-adv-x="324" 
d="M25 608v74c0 10 8 18 18 18h162c11 0 19 -8 19 -18v-663c0 -11 -8 -19 -19 -19h-83c-10 0 -19 8 -19 19v570h-60c-10 0 -18 8 -18 19z" />
    <glyph glyph-name="two" unicode="2" horiz-adv-x="478" 
d="M25 19v57c49 55 101 119 162 196c53 67 122 154 122 219c0 47 -30 92 -78 92c-45 0 -76 -29 -95 -67c-6 -10 -18 -14 -27 -8l-71 46c-8 5 -10 16 -5 25c42 73 114 121 202 121c57 0 108 -21 144 -57c43 -42 57 -92 56 -142c-3 -105 -80 -214 -139 -288l-85 -102h224
c10 0 18 -8 18 -18v-74c0 -11 -8 -19 -18 -19h-391c-10 0 -19 8 -19 19z" />
    <glyph glyph-name="three" unicode="3" horiz-adv-x="499" 
d="M169 345v76c0 10 9 18 19 18c18 0 28 1 41 3c49 5 80 35 80 81c0 35 -31 59 -60 59c-41 0 -63 -21 -93 -49c-7 -7 -20 -5 -27 2l-52 57c-11 13 -5 22 6 33c45 45 95 75 176 75c98 0 173 -73 173 -171c0 -40 -19 -93 -58 -126c65 -34 100 -96 100 -177
c0 -139 -99 -231 -232 -231c-91 0 -175 52 -215 128c-4 8 -1 18 5 23l67 53c10 8 22 4 28 -7c20 -46 64 -76 115 -76c63 0 108 42 108 108c0 59 -40 97 -100 101c-14 1 -30 1 -62 1c-10 0 -19 9 -19 19z" />
    <glyph glyph-name="four" unicode="4" horiz-adv-x="545" 
d="M25 208v68l328 417c3 3 11 7 15 7h41c10 0 19 -8 19 -18v-382h74c10 0 18 -8 18 -18v-74c0 -10 -8 -19 -18 -19h-74v-170c0 -11 -9 -19 -19 -19h-83c-10 0 -19 8 -19 19v170h-264c-10 0 -18 9 -18 19zM185 300h122v160z" />
    <glyph glyph-name="five" unicode="5" horiz-adv-x="510" 
d="M237 117c75 0 128 58 128 135c0 68 -42 129 -115 129c-42 0 -69 -14 -94 -36c-5 -4 -14 -6 -20 -4l-75 28c-8 3 -14 12 -12 21l56 295c2 9 10 15 18 15h298c11 0 19 -8 19 -18v-74c0 -11 -8 -19 -19 -19h-214l-16 -96c21 6 43 9 65 9c65 0 121 -22 161 -64
c43 -45 68 -108 68 -186c0 -69 -26 -134 -71 -180s-108 -74 -181 -74c-80 0 -153 34 -204 104c-6 8 -5 20 3 26l66 52c8 6 20 4 26 -4c26 -33 63 -59 113 -59z" />
    <glyph glyph-name="six" unicode="6" horiz-adv-x="534" 
d="M25 252c0 118 45 228 125 318c52 59 142 123 229 145c16 4 36 3 36 -15v-75c0 -8 -7 -16 -13 -18c-56 -19 -111 -57 -147 -108c7 1 13 1 20 1c73 0 134 -27 175 -75c38 -44 59 -105 59 -175c0 -141 -108 -252 -243 -252s-241 113 -241 254zM148 250
c0 -74 51 -131 120 -131c70 0 120 57 120 131c0 72 -44 131 -121 131c-68 0 -119 -57 -119 -131z" />
    <glyph glyph-name="seven" unicode="7" horiz-adv-x="485" 
d="M142 0h-86c-15 0 -23 14 -17 27l257 549h-253c-10 0 -18 8 -18 19v87c0 10 8 18 18 18h398c10 0 19 -8 19 -18v-42l-288 -615c-9 -20 -18 -25 -30 -25z" />
    <glyph glyph-name="eight" unicode="8" horiz-adv-x="516" 
d="M255 700c107 0 190 -72 190 -170c0 -41 -20 -94 -55 -128c65 -34 101 -102 101 -181c0 -138 -118 -226 -235 -226c-127 0 -231 85 -231 225c0 77 35 141 97 179c-35 35 -56 90 -56 131c0 98 91 170 189 170zM259 113c66 0 108 50 108 110c0 58 -42 113 -110 113
c-71 0 -108 -54 -108 -114c0 -69 49 -109 110 -109zM321 520c0 36 -27 66 -66 66c-37 0 -66 -30 -66 -66c0 -38 28 -73 66 -73c39 0 66 35 66 73z" />
    <glyph glyph-name="nine" unicode="9" horiz-adv-x="534" 
d="M509 448c0 -118 -45 -228 -125 -318c-52 -59 -142 -123 -229 -145c-16 -4 -36 -3 -36 15v75c0 8 7 16 13 18c56 19 111 57 147 108c-7 -1 -13 -1 -20 -1c-73 0 -134 27 -175 75c-38 44 -59 105 -59 175c0 141 108 252 243 252s241 -113 241 -254zM386 450
c0 74 -51 131 -120 131c-70 0 -120 -57 -120 -131c0 -72 44 -131 121 -131c68 0 119 57 119 131z" />
    <glyph glyph-name="colon" unicode=":" horiz-adv-x="258" 
d="M76 76c0 44 35 80 79 80c43 0 78 -36 78 -80c0 -45 -35 -81 -78 -81c-44 0 -79 36 -79 81zM75 424c0 45 35 81 79 81c43 0 79 -36 79 -81c0 -44 -36 -80 -79 -80c-44 0 -79 36 -79 80z" />
    <glyph glyph-name="semicolon" unicode=";" horiz-adv-x="275" 
d="M77 424c0 45 35 81 79 81s79 -36 79 -81c0 -44 -35 -80 -79 -80s-79 36 -79 80zM144 -161l-46 32c-9 6 -11 17 -6 25c20 33 34 72 38 107c-33 9 -55 41 -55 76c0 44 37 80 81 80c69 0 95 -56 93 -115c-2 -70 -46 -159 -80 -201c-6 -8 -18 -10 -25 -4z" />
    <glyph glyph-name="comma" unicode="," horiz-adv-x="250" 
d="M117 -159l-44 30c-9 6 -12 17 -6 25c20 33 34 72 38 107c-33 9 -55 41 -55 76c0 44 37 80 81 80c69 0 95 -56 93 -115c-2 -70 -48 -157 -82 -199c-6 -8 -17 -9 -25 -4z" />
    <glyph glyph-name="hyphen" unicode="-" horiz-adv-x="500" 
d="M100 222v74c0 10 9 19 19 19h278c10 0 18 -9 18 -19v-74c0 -10 -8 -18 -18 -18h-278c-10 0 -19 8 -19 18z" />
    <glyph glyph-name="period" unicode="." horiz-adv-x="232" 
d="M50 76c0 44 35 80 79 80c43 0 78 -36 78 -80c0 -45 -35 -81 -78 -81c-44 0 -79 36 -79 81z" />
    <glyph glyph-name="ampersand" unicode="&#x26;" horiz-adv-x="622" 
d="M554 174c45 -45 53 -96 53 -153c0 -11 -10 -21 -20 -21h-83c-10 0 -18 8 -18 23c0 21 -8 43 -22 58c-48 -53 -115 -83 -185 -83c-65 0 -128 25 -175 71c-45 45 -75 111 -78 166c-2 77 22 136 66 179c17 17 33 30 56 41c-15 36 -25 79 -26 116c-1 48 12 94 49 131
c30 29 70 48 115 48c41 0 76 -14 102 -38c24 -23 44 -62 44 -100c0 -40 -16 -79 -42 -107c-12 -12 -23 -19 -39 -26c-6 -3 -17 -3 -21 2c-16 18 -28 36 -39 56c-4 7 -1 18 5 24c13 11 20 22 20 39c0 19 -12 34 -30 34c-30 0 -45 -28 -45 -52c0 -49 22 -107 73 -175
c43 -58 76 -96 103 -125c-4 29 -22 63 -29 76c-5 10 -3 22 7 27l75 38c7 3 18 1 23 -5c32 -37 46 -86 46 -134c0 -28 -4 -57 -13 -82c11 -10 19 -19 28 -28zM277 254c-25 27 -50 64 -75 104c-33 -23 -52 -65 -52 -103c0 -35 16 -72 40 -97c24 -24 55 -38 85 -38
c36 0 70 15 93 38c-34 34 -62 64 -91 96z" />
    <glyph glyph-name="quotesingle" unicode="'" horiz-adv-x="236" 
d="M184 509h-55c-10 0 -18 9 -19 18l-10 140v69c0 10 8 19 18 19h75c10 0 18 -9 18 -19v-69l-9 -140c-1 -9 -9 -18 -18 -18z" />
    <glyph glyph-name="parenleft" unicode="(" horiz-adv-x="336" 
d="M282 739l23 -67c3 -9 -2 -19 -10 -22c-116 -48 -155 -288 -155 -395c0 -116 43 -346 160 -409c9 -5 13 -16 9 -25l-29 -62c-5 -10 -16 -13 -25 -9c-172 86 -230 343 -230 509c0 177 70 422 232 491c10 4 21 0 25 -11z" />
    <glyph glyph-name="parenright" unicode=")" horiz-adv-x="336" 
d="M31 672l23 67c4 11 15 15 25 11c165 -70 232 -319 232 -491c0 -166 -58 -424 -230 -509c-9 -4 -20 -1 -25 9l-29 62c-4 9 0 20 9 25c117 63 160 293 160 409c0 107 -39 347 -155 395c-8 3 -13 13 -10 22z" />
    <glyph glyph-name="exclam" unicode="!" horiz-adv-x="308" 
d="M100 76c0 44 35 80 79 80c43 0 79 -36 79 -80c0 -45 -36 -81 -79 -81c-44 0 -79 36 -79 81zM209 208h-61c-10 0 -18 9 -18 19l-9 505c0 10 8 18 18 18h79c10 0 18 -8 18 -18l-9 -505c0 -10 -8 -19 -18 -19z" />
    <glyph glyph-name="quotedbl" unicode="&#x22;" horiz-adv-x="413" 
d="M184 509h-55c-10 0 -18 9 -19 18l-10 140v69c0 10 8 19 18 19h75c10 0 19 -9 19 -19v-69l-10 -140c-1 -9 -9 -18 -18 -18zM336 509h-55c-10 0 -18 9 -19 18l-10 140v69c0 10 8 19 18 19h75c10 0 18 -9 18 -19v-69l-9 -140c-1 -9 -9 -18 -18 -18z" />
    <glyph glyph-name="space" unicode=" " horiz-adv-x="300" 
 />
    <glyph glyph-name="question" unicode="?" horiz-adv-x="469" 
d="M111 553l-59 56c-6 5 -8 15 -4 22c12 23 29 42 50 62c42 37 94 57 154 57c55 0 103 -18 138 -52c40 -37 54 -85 54 -130c-1 -98 -75 -160 -145 -206l-12 -120c-1 -9 -9 -17 -19 -17h-61c-9 0 -17 9 -18 18l-9 145c-1 18 14 29 28 38c69 47 109 77 109 128
c0 44 -30 76 -74 76c-48 0 -81 -31 -101 -71c-6 -13 -21 -16 -31 -6zM159 77c0 43 36 79 80 79c42 0 78 -37 78 -81s-37 -81 -81 -80s-77 36 -77 82z" />
    <glyph glyph-name="A" unicode="A" horiz-adv-x="708" 
d="M409 678l291 -652c6 -13 -2 -26 -17 -26h-85c-16 0 -24 6 -30 19l-79 177h-270l-79 -177c-6 -13 -14 -19 -29 -19h-86c-15 0 -23 13 -17 26l302 654c7 14 15 20 30 20h40c14 0 22 -6 29 -22zM359 495l-82 -176h157z" />
    </font>
</defs>
</svg>
