<?xml version="1.0" encoding="utf-8"?>
<!-- Generator: Adobe Illustrator 16.0.0, SVG Export Plug-In . SVG Version: 6.00 Build 0)  -->
<!DOCTYPE svg PUBLIC "-//W3C//DTD SVG 1.1//EN" "http://www.w3.org/Graphics/SVG/1.1/DTD/svg11.dtd">
<svg version="1.1" xmlns="http://www.w3.org/2000/svg" xmlns:xlink="http://www.w3.org/1999/xlink" x="0px" y="0px"
	 width="27.875px" height="29.16px" viewBox="0 0 27.875 29.16" enable-background="new 0 0 27.875 29.16" xml:space="preserve">
<g id="Livello_1">
</g>
<g id="Livello_2">
	<path fill="#FFFFFF" d="M0-0.001V29.16h27.875C24.036,15.402,13.501,4.437,0-0.001z M17.905,14.605
		c0.689,1.232,1.063,2.598,1.111,3.975h-4.047c-0.02-1.154-0.143-2.302-0.369-3.383C16.258,15.019,17.329,14.769,17.905,14.605z
		 M16.342,12.576c0.467,0.451,0.871,0.941,1.217,1.461c-0.588,0.156-1.604,0.373-3.105,0.533c-0.233-0.914-0.542-1.77-0.931-2.523
		c-0.363-0.703-0.768-1.268-1.198-1.695C13.789,10.712,15.18,11.453,16.342,12.576z M10.524,10.101
		c0.113,0.004,0.226,0.01,0.338,0.018c0.238,0.088,0.475,0.225,0.708,0.41c0.509,0.404,0.976,1.014,1.387,1.811
		c0.349,0.678,0.636,1.449,0.856,2.291c-0.932,0.08-2.025,0.135-3.29,0.143V10.101z M10.524,15.41
		c1.33-0.008,2.472-0.066,3.44-0.152c0.223,1.036,0.349,2.159,0.368,3.322h-3.808V15.41z M10.524,19.216h3.808
		c-0.019,1.162-0.146,2.283-0.37,3.322c-0.968-0.086-2.109-0.143-3.438-0.152V19.216z M3.875,12.773
		c1.194-1.232,2.662-2.039,4.213-2.422c-0.474,0.471-0.916,1.107-1.305,1.91c-0.339,0.701-0.614,1.48-0.825,2.309
		c-1.5-0.16-2.515-0.377-3.103-0.533C3.151,13.593,3.491,13.169,3.875,12.773z M2.509,14.605c0.577,0.164,1.647,0.414,3.305,0.592
		c-0.228,1.083-0.352,2.231-0.371,3.383H1.397C1.446,17.207,1.817,15.839,2.509,14.605z M1.397,19.216h4.047
		c0.019,1.154,0.141,2.303,0.368,3.383c-1.658,0.18-2.729,0.428-3.305,0.594C1.817,21.958,1.446,20.593,1.397,19.216z M4.071,25.222
		c-0.466-0.451-0.872-0.943-1.217-1.463c0.588-0.154,1.603-0.373,3.104-0.531c0.233,0.914,0.542,1.768,0.931,2.521
		c0.363,0.703,0.768,1.27,1.198,1.695C6.623,27.085,5.232,26.345,4.071,25.222z M9.888,27.697c-0.113-0.004-0.226-0.01-0.338-0.02
		c-0.238-0.088-0.475-0.225-0.708-0.41c-0.51-0.404-0.976-1.012-1.387-1.809c-0.349-0.678-0.636-1.451-0.857-2.293
		c0.932-0.078,2.025-0.135,3.29-0.143V27.697z M9.888,22.386c-1.33,0.01-2.472,0.066-3.441,0.152
		C6.225,21.503,6.1,20.38,6.081,19.216h3.808V22.386z M9.888,18.58H6.08c0.019-1.16,0.146-2.283,0.37-3.322
		c0.969,0.086,2.11,0.145,3.439,0.152V18.58z M9.888,14.773c-1.265-0.008-2.357-0.063-3.289-0.143
		c0.199-0.758,0.453-1.463,0.758-2.092c0.616-1.273,1.392-2.117,2.197-2.42c0.111-0.008,0.223-0.014,0.334-0.018V14.773z
		 M10.858,27.677c-0.111,0.008-0.223,0.016-0.334,0.018v-4.672c1.265,0.008,2.357,0.064,3.289,0.143
		c-0.199,0.758-0.453,1.463-0.757,2.092C12.439,26.531,11.664,27.376,10.858,27.677z M16.538,25.025
		c-1.195,1.23-2.662,2.037-4.214,2.42c0.474-0.471,0.917-1.105,1.305-1.91c0.34-0.701,0.615-1.48,0.825-2.307
		c1.502,0.158,2.516,0.377,3.104,0.531C17.262,24.203,16.922,24.626,16.538,25.025z M17.903,23.193
		c-0.576-0.166-1.646-0.414-3.305-0.594c0.229-1.082,0.352-2.229,0.371-3.383h4.047C18.965,20.589,18.596,21.957,17.903,23.193z"/>
</g>
</svg>
