<?xml version="1.0" encoding="utf-8"?>
<!-- Generator: Adobe Illustrator 16.0.0, SVG Export Plug-In . SVG Version: 6.00 Build 0)  -->
<!DOCTYPE svg PUBLIC "-//W3C//DTD SVG 1.1//EN" "http://www.w3.org/Graphics/SVG/1.1/DTD/svg11.dtd">
<svg version="1.1" id="Livello_1" xmlns="http://www.w3.org/2000/svg" xmlns:xlink="http://www.w3.org/1999/xlink" x="0px" y="0px"
	 width="99.21px" height="113.39px" viewBox="0 0 99.21 113.39" enable-background="new 0 0 99.21 113.39" xml:space="preserve">
<g id="Livello_2">
	<path fill="#FFFFFF" d="M36,42.999V72.16h27.875C60.036,58.402,49.501,47.437,36,42.999z M53.904,57.605
		c0.689,1.232,1.063,2.598,1.111,3.975h-4.047c-0.02-1.154-0.143-2.303-0.369-3.383C52.258,58.02,53.329,57.769,53.904,57.605z
		 M52.342,55.576c0.467,0.451,0.871,0.941,1.217,1.461c-0.588,0.156-1.604,0.373-3.104,0.533c-0.233-0.914-0.542-1.77-0.931-2.523
		c-0.363-0.703-0.768-1.268-1.198-1.695C49.789,53.712,51.18,54.453,52.342,55.576z M46.524,53.101
		c0.113,0.004,0.226,0.01,0.338,0.018c0.238,0.088,0.475,0.225,0.708,0.41c0.509,0.404,0.976,1.014,1.387,1.811
		c0.349,0.678,0.636,1.449,0.856,2.291c-0.932,0.08-2.025,0.135-3.29,0.143L46.524,53.101L46.524,53.101z M46.524,58.41
		c1.33-0.008,2.472-0.066,3.44-0.152c0.223,1.036,0.349,2.159,0.368,3.322h-3.808V58.41z M46.524,62.216h3.808
		c-0.019,1.162-0.146,2.283-0.37,3.322c-0.968-0.086-2.109-0.144-3.438-0.152V62.216z M39.875,55.773
		c1.194-1.232,2.662-2.039,4.213-2.422c-0.474,0.471-0.916,1.107-1.305,1.91c-0.339,0.701-0.614,1.48-0.825,2.309
		c-1.5-0.16-2.515-0.377-3.103-0.533C39.151,56.593,39.491,56.169,39.875,55.773z M38.509,57.605
		c0.577,0.164,1.647,0.415,3.305,0.592c-0.228,1.082-0.352,2.23-0.371,3.383h-4.046C37.446,60.207,37.817,58.839,38.509,57.605z
		 M37.397,62.216h4.047c0.019,1.154,0.141,2.304,0.368,3.384c-1.658,0.18-2.729,0.428-3.305,0.594
		C37.817,64.958,37.446,63.593,37.397,62.216z M40.071,68.223c-0.466-0.451-0.872-0.943-1.217-1.464
		c0.588-0.153,1.603-0.373,3.104-0.53c0.233,0.914,0.542,1.768,0.931,2.521c0.363,0.703,0.768,1.271,1.198,1.694
		C42.623,70.085,41.232,69.346,40.071,68.223z M45.888,70.697c-0.113-0.004-0.226-0.01-0.338-0.021
		c-0.238-0.088-0.475-0.225-0.708-0.409c-0.51-0.404-0.976-1.013-1.387-1.81c-0.349-0.679-0.636-1.451-0.857-2.293
		c0.932-0.078,2.025-0.136,3.29-0.144V70.697z M45.888,65.386c-1.33,0.011-2.472,0.066-3.441,0.152
		c-0.222-1.035-0.347-2.158-0.366-3.322h3.808L45.888,65.386L45.888,65.386z M45.888,61.58H42.08c0.019-1.16,0.146-2.283,0.37-3.322
		c0.969,0.086,2.11,0.145,3.439,0.152L45.888,61.58L45.888,61.58z M45.888,57.773c-1.265-0.008-2.357-0.063-3.289-0.143
		c0.199-0.758,0.453-1.463,0.758-2.092c0.616-1.273,1.392-2.117,2.197-2.42c0.111-0.008,0.223-0.014,0.334-0.018V57.773z
		 M46.858,70.677c-0.111,0.009-0.223,0.017-0.334,0.019v-4.672c1.265,0.008,2.357,0.063,3.289,0.143
		c-0.199,0.758-0.453,1.463-0.757,2.092C48.439,69.531,47.664,70.376,46.858,70.677z M52.538,68.025
		c-1.195,1.229-2.662,2.037-4.214,2.42c0.474-0.471,0.917-1.105,1.305-1.91c0.34-0.701,0.615-1.48,0.825-2.307
		c1.502,0.157,2.517,0.377,3.104,0.53C53.262,67.203,52.922,67.626,52.538,68.025z M53.902,66.193
		c-0.575-0.166-1.646-0.414-3.305-0.594c0.229-1.082,0.353-2.229,0.371-3.384h4.047C54.965,63.589,54.596,64.957,53.902,66.193z"/>
</g>
</svg>
