<?xml version="1.0" encoding="utf-8"?>
<!-- Generator: Adobe Illustrator 16.0.0, SVG Export Plug-In . SVG Version: 6.00 Build 0)  -->
<!DOCTYPE svg PUBLIC "-//W3C//DTD SVG 1.1//EN" "http://www.w3.org/Graphics/SVG/1.1/DTD/svg11.dtd">
<svg version="1.1" id="Livello_1" xmlns="http://www.w3.org/2000/svg" xmlns:xlink="http://www.w3.org/1999/xlink" x="0px" y="0px"
	 width="99.21px" height="113.39px" viewBox="0 0 99.21 113.39" enable-background="new 0 0 99.21 113.39" xml:space="preserve">
<path fill="#FFFFFF" d="M133.432,127.97c-3.84-13.759-14.374-24.723-27.875-29.16v29.16H133.432z M113.721,120.642
	c-0.154,0.328-0.463,0.499-0.688,0.499c-0.047,0-0.092-0.007-0.132-0.021c-0.166,0.271-0.395,0.318-0.537,0.318
	c-0.382,0-0.569-0.162-0.66-0.298c-0.103-0.154-0.184-0.438,0.016-0.908c0.244-0.574,0.107-1.302-0.045-1.49
	c-0.245-0.303-0.325-0.565-0.236-0.786c0.082-0.202,0.289-0.326,0.615-0.367c0.427-0.053,0.563-0.25,0.75-0.523l0.083-0.119
	c0.097-0.137,0.209-0.164,0.286-0.164c0.4,0,0.633,0.769,0.686,1.253C113.926,118.676,113.939,120.176,113.721,120.642z
	 M109.971,109.605c0.182-0.117,0.588-0.2,1.233-0.324c0.577-0.112,1.229-0.239,1.612-0.406c0.357-0.156,0.631-0.421,0.896-0.677
	c0.275-0.266,0.534-0.517,0.852-0.6c0.4-0.104,1.379-0.319,1.85-0.319c0.141,0,0.296,0.015,0.375,0.127
	c0.064,0.088,0.078,0.202,0.095,0.336c0.038,0.305,0.08,0.409,0.254,0.425c0.127,0.013,0.264,0.015,0.397,0.018
	c0.438,0.008,0.891,0.016,1.021,0.359c0.107,0.282,0.439,1.229,0.195,1.584c-0.086,0.125-0.23,0.178-0.402,0.141
	c-0.059-0.013-0.137-0.02-0.227-0.02c-0.551,0-1.226,0.213-1.357,0.349c0.049,0.073,0.113,0.151,0.18,0.235
	c0.263,0.332,0.59,0.744,0.309,1.055c-0.059,0.065-0.25,0.295-0.219,0.513c0.019,0.124,0.11,0.236,0.274,0.335
	c0.187,0.112,0.364,0.192,0.521,0.264c0.348,0.157,0.649,0.293,0.838,0.671c0.083,0.165,0.135,0.354,0.188,0.555
	c0.115,0.409,0.242,0.874,0.682,1.282c0.543,0.507,1.089,0.514,1.528,0.521c0.078,0.001,0.153,0.001,0.222,0.005
	c0.27,0.014,0.459,0.155,0.51,0.378c0.051,0.227-0.055,0.48-0.253,0.609c0.073,0.084,0.315,0.257,0.785,0.382
	c0.794,0.212,1.442,0.813,1.759,1.151c0.263,0.281,0.243,0.816,0.129,1.079c-0.096,0.22-0.242,0.253-0.318,0.253
	c-0.125,0-0.236-0.077-0.333-0.228c-0.298-0.47-0.833-0.976-1.151-0.741c-0.332,0.246-0.496,0.504-0.484,0.634
	c0.002,0.019,0.006,0.065,0.1,0.112c0.338,0.169,0.664,0.685,0.71,1.124c0.026,0.255-0.044,0.464-0.2,0.588
	c-0.13,0.104-0.275,0.335-0.416,0.558c-0.219,0.348-0.445,0.708-0.736,0.811c-0.195,0.068-0.412,0.025-0.555-0.017
	c-0.056-0.017-0.109-0.033-0.146-0.033c-0.018,0-0.054,0-0.116,0.098c-0.254,0.392-0.285,0.566-0.152,0.885
	c0.106,0.262,0.09,0.538-0.047,0.74c-0.116,0.174-0.305,0.27-0.53,0.27c-0.065,0-0.134-0.008-0.204-0.023
	c-0.401-0.092-1.273-0.627-1.973-1.058c-0.271-0.167-0.508-0.313-0.658-0.395c-0.292-0.161-0.423-0.489-0.333-0.84
	c0.104-0.402,0.442-0.658,0.833-0.596c0.234,0.037,0.406,0.113,0.574,0.188c0.281,0.125,0.551,0.241,1.145,0.17
	c0.634-0.076,1.391-0.379,1.652-0.887c0.146-0.289,0.117-0.625-0.09-0.999c-0.715-1.291-1.184-1.608-1.72-1.888
	c-0.724-0.379-2.276-1.287-2.964-2.021c-0.232-0.246-0.482-0.469-0.725-0.684c-0.502-0.446-0.976-0.866-1.135-1.396l-0.021-0.069
	c-0.203-0.679-0.337-1.127-0.954-1.395c-0.633-0.274-0.911-0.271-1.135,0.116c-0.223,0.383-0.865,0.627-1.211,0.627
	c-0.157,0-0.27-0.047-0.334-0.14c-0.031-0.045-0.076-0.143-0.023-0.282c0.032-0.086,0.006-0.129-0.192-0.307
	c-0.151-0.137-0.34-0.307-0.471-0.581C109.66,111.715,109.146,110.136,109.971,109.605z"/>
<path fill="#FFFFFF" d="M21.73,66.813v29.16h27.875C45.766,82.214,35.231,71.25,21.73,66.813z M39.634,81.417
	c0.69,1.233,1.062,2.599,1.111,3.976h-4.047c-0.019-1.155-0.142-2.303-0.369-3.384C37.988,81.831,39.058,81.581,39.634,81.417z
	 M38.071,79.388c0.467,0.451,0.872,0.942,1.217,1.461c-0.588,0.156-1.603,0.374-3.104,0.533c-0.232-0.914-0.542-1.769-0.93-2.522
	c-0.363-0.704-0.768-1.269-1.198-1.696C35.519,77.524,36.91,78.265,38.071,79.388z M32.254,76.913
	c0.113,0.004,0.226,0.01,0.338,0.019c0.238,0.088,0.475,0.224,0.708,0.409c0.509,0.405,0.976,1.014,1.387,1.811
	c0.349,0.678,0.636,1.45,0.856,2.292c-0.932,0.079-2.025,0.134-3.29,0.143V76.913z M32.254,82.222
	c1.33-0.008,2.472-0.066,3.44-0.151c0.223,1.035,0.348,2.158,0.367,3.322h-3.808V82.222z M32.254,86.029h3.809
	c-0.019,1.161-0.146,2.283-0.37,3.321c-0.969-0.085-2.11-0.143-3.438-0.151V86.029z M25.605,79.585
	c1.194-1.231,2.662-2.038,4.213-2.421c-0.474,0.471-0.916,1.106-1.305,1.909c-0.339,0.701-0.614,1.481-0.825,2.309
	c-1.5-0.159-2.515-0.377-3.103-0.533C24.881,80.405,25.221,79.981,25.605,79.585z M24.239,81.417
	c0.577,0.165,1.647,0.414,3.305,0.592c-0.228,1.082-0.352,2.23-0.371,3.384h-4.046C23.176,84.019,23.547,82.652,24.239,81.417z
	 M23.127,86.029h4.047c0.019,1.154,0.141,2.303,0.368,3.383c-1.658,0.179-2.729,0.428-3.305,0.593
	C23.547,88.771,23.176,87.405,23.127,86.029z M25.801,92.034c-0.466-0.451-0.872-0.942-1.217-1.462
	c0.588-0.155,1.603-0.374,3.104-0.532c0.233,0.914,0.542,1.769,0.931,2.521c0.363,0.704,0.768,1.27,1.198,1.696
	C28.353,93.898,26.962,93.157,25.801,92.034z M31.618,94.509c-0.113-0.004-0.226-0.01-0.338-0.019
	c-0.238-0.089-0.475-0.225-0.708-0.41c-0.51-0.404-0.976-1.013-1.387-1.81c-0.349-0.678-0.636-1.451-0.857-2.292
	c0.932-0.079,2.025-0.135,3.29-0.143V94.509z M31.618,89.199c-1.33,0.009-2.472,0.066-3.441,0.151
	c-0.222-1.035-0.347-2.158-0.367-3.321h3.808V89.199z M31.618,85.393H27.81c0.019-1.161,0.146-2.283,0.37-3.322
	c0.969,0.085,2.11,0.144,3.439,0.151V85.393z M31.618,81.586c-1.265-0.009-2.357-0.063-3.289-0.143
	c0.199-0.759,0.453-1.463,0.758-2.093c0.616-1.273,1.392-2.117,2.197-2.419c0.111-0.009,0.223-0.015,0.334-0.019V81.586z
	 M32.588,94.489c-0.111,0.009-0.223,0.016-0.334,0.019v-4.672c1.265,0.008,2.357,0.063,3.289,0.143
	c-0.199,0.758-0.453,1.462-0.757,2.092C34.169,93.344,33.394,94.188,32.588,94.489z M38.267,91.837
	c-1.195,1.23-2.661,2.037-4.213,2.42c0.474-0.47,0.917-1.105,1.305-1.909c0.34-0.701,0.615-1.48,0.825-2.308
	c1.5,0.158,2.515,0.377,3.103,0.532C38.991,91.016,38.651,91.439,38.267,91.837z M39.633,90.005
	c-0.577-0.165-1.647-0.414-3.305-0.593c0.228-1.082,0.352-2.229,0.371-3.383h4.046C40.696,87.402,40.326,88.769,39.633,90.005z"/>
</svg>
