<?xml version="1.0" encoding="utf-8"?>
<!-- Generator: Adobe Illustrator 16.0.0, SVG Export Plug-In . SVG Version: 6.00 Build 0)  -->
<!DOCTYPE svg PUBLIC "-//W3C//DTD SVG 1.1//EN" "http://www.w3.org/Graphics/SVG/1.1/DTD/svg11.dtd">
<svg version="1.1" id="Livello_1" xmlns="http://www.w3.org/2000/svg" xmlns:xlink="http://www.w3.org/1999/xlink" x="0px" y="0px"
	 width="99.21px" height="113.39px" viewBox="0 0 99.21 113.39" enable-background="new 0 0 99.21 113.39" xml:space="preserve">
<path fill="#FFFFFF" d="M63.875,71.39C60.035,57.631,49.501,46.667,36,42.229v29.16H63.875z M44.165,64.062
	c-0.154,0.328-0.463,0.499-0.689,0.499c-0.047,0-0.092-0.007-0.131-0.021c-0.166,0.271-0.395,0.318-0.538,0.318
	c-0.381,0-0.569-0.162-0.659-0.298c-0.103-0.154-0.184-0.438,0.015-0.908c0.244-0.574,0.107-1.302-0.045-1.49
	c-0.245-0.303-0.325-0.565-0.236-0.786c0.082-0.202,0.289-0.326,0.616-0.367c0.426-0.053,0.562-0.25,0.749-0.523l0.083-0.119
	c0.097-0.137,0.209-0.164,0.286-0.164c0.401,0,0.633,0.769,0.686,1.253C44.37,62.096,44.383,63.596,44.165,64.062z M40.414,53.025
	c0.183-0.117,0.588-0.2,1.234-0.324c0.577-0.112,1.229-0.239,1.612-0.406c0.357-0.156,0.631-0.421,0.897-0.677
	c0.275-0.266,0.534-0.517,0.852-0.6c0.4-0.104,1.378-0.319,1.85-0.319c0.141,0,0.295,0.015,0.375,0.127
	c0.064,0.088,0.078,0.202,0.095,0.336c0.039,0.305,0.08,0.409,0.254,0.425c0.127,0.013,0.264,0.015,0.397,0.018
	c0.438,0.008,0.89,0.016,1.021,0.359c0.108,0.282,0.439,1.229,0.196,1.584c-0.086,0.125-0.231,0.178-0.403,0.141
	c-0.058-0.013-0.137-0.02-0.226-0.02c-0.55,0-1.226,0.213-1.357,0.349c0.049,0.073,0.113,0.151,0.179,0.235
	c0.263,0.332,0.591,0.744,0.31,1.055c-0.06,0.065-0.251,0.295-0.219,0.513c0.018,0.124,0.11,0.236,0.274,0.335
	c0.187,0.112,0.364,0.192,0.521,0.264c0.348,0.157,0.649,0.293,0.838,0.671c0.083,0.165,0.135,0.354,0.189,0.555
	c0.114,0.409,0.242,0.874,0.681,1.282c0.543,0.507,1.089,0.514,1.529,0.521c0.078,0.001,0.153,0.001,0.222,0.005
	c0.27,0.014,0.459,0.155,0.51,0.378c0.051,0.227-0.055,0.48-0.253,0.609c0.073,0.084,0.315,0.257,0.785,0.382
	c0.794,0.212,1.442,0.813,1.759,1.151c0.263,0.281,0.243,0.816,0.129,1.079c-0.096,0.22-0.242,0.253-0.318,0.253
	c-0.125,0-0.236-0.077-0.333-0.228c-0.298-0.47-0.833-0.976-1.151-0.741c-0.332,0.246-0.496,0.504-0.484,0.634
	c0.002,0.019,0.006,0.065,0.1,0.112c0.338,0.169,0.664,0.685,0.71,1.124c0.026,0.255-0.044,0.464-0.2,0.588
	c-0.13,0.104-0.275,0.335-0.416,0.558c-0.219,0.348-0.445,0.708-0.736,0.811c-0.195,0.068-0.412,0.025-0.555-0.017
	c-0.056-0.017-0.109-0.033-0.146-0.033c-0.018,0-0.054,0-0.116,0.098c-0.254,0.392-0.285,0.566-0.152,0.885
	c0.106,0.262,0.089,0.538-0.047,0.74c-0.116,0.174-0.305,0.27-0.53,0.27c-0.066,0-0.134-0.008-0.204-0.023
	c-0.402-0.092-1.274-0.627-1.973-1.058c-0.271-0.167-0.508-0.313-0.659-0.395c-0.292-0.161-0.422-0.489-0.333-0.84
	c0.104-0.402,0.442-0.658,0.833-0.596c0.234,0.037,0.406,0.113,0.573,0.188c0.282,0.125,0.552,0.241,1.146,0.17
	c0.633-0.076,1.39-0.379,1.652-0.887c0.146-0.289,0.117-0.625-0.09-0.999c-0.715-1.291-1.183-1.608-1.72-1.888
	c-0.724-0.379-2.276-1.287-2.964-2.021c-0.231-0.246-0.482-0.469-0.724-0.684c-0.501-0.446-0.976-0.866-1.134-1.396l-0.021-0.069
	c-0.203-0.679-0.337-1.127-0.954-1.395c-0.632-0.274-0.911-0.271-1.135,0.116c-0.222,0.383-0.864,0.627-1.21,0.627
	c-0.158,0-0.27-0.047-0.334-0.14c-0.031-0.045-0.076-0.143-0.024-0.282c0.032-0.086,0.005-0.129-0.192-0.307
	c-0.152-0.137-0.34-0.307-0.471-0.581C40.104,55.135,39.59,53.556,40.414,53.025z"/>
</svg>