<?xml version="1.0" encoding="utf-8"?>
<!-- Generator: Adobe Illustrator 16.0.0, SVG Export Plug-In . SVG Version: 6.00 Build 0)  -->
<!DOCTYPE svg PUBLIC "-//W3C//DTD SVG 1.1//EN" "http://www.w3.org/Graphics/SVG/1.1/DTD/svg11.dtd">
<svg version="1.1" xmlns="http://www.w3.org/2000/svg" xmlns:xlink="http://www.w3.org/1999/xlink" x="0px" y="0px"
	 width="27.875px" height="29.16px" viewBox="0 0 27.875 29.16" enable-background="new 0 0 27.875 29.16" xml:space="preserve">
<g id="Livello_1">
	<path fill="#FFFFFF" d="M27.874,29.161C24.034,15.401,13.501,4.438,0,0v29.161H27.874z M8.163,21.833
		c-0.154,0.328-0.463,0.498-0.688,0.498c-0.047,0-0.092-0.006-0.133-0.021c-0.166,0.271-0.394,0.318-0.537,0.318
		c-0.381,0-0.568-0.162-0.66-0.297c-0.102-0.154-0.184-0.439,0.016-0.908c0.244-0.574,0.107-1.303-0.045-1.49
		c-0.244-0.303-0.324-0.567-0.236-0.788c0.082-0.201,0.289-0.326,0.615-0.367c0.428-0.053,0.563-0.25,0.75-0.523l0.084-0.119
		c0.096-0.137,0.209-0.164,0.285-0.164c0.4,0,0.633,0.77,0.686,1.254C8.368,19.866,8.382,21.366,8.163,21.833z M4.414,10.796
		c0.182-0.117,0.588-0.2,1.234-0.324c0.576-0.112,1.229-0.239,1.611-0.406C7.616,9.909,7.89,9.645,8.155,9.389
		c0.275-0.266,0.535-0.517,0.852-0.6c0.4-0.104,1.379-0.319,1.85-0.319c0.141,0,0.297,0.015,0.375,0.127
		c0.064,0.088,0.078,0.202,0.096,0.336c0.037,0.305,0.08,0.409,0.254,0.425c0.127,0.013,0.264,0.015,0.396,0.018
		c0.437,0.008,0.89,0.016,1.021,0.359c0.107,0.282,0.439,1.229,0.195,1.584c-0.086,0.125-0.23,0.178-0.402,0.141
		c-0.059-0.013-0.137-0.02-0.227-0.02c-0.55,0-1.224,0.213-1.357,0.349c0.049,0.073,0.113,0.151,0.18,0.235
		c0.264,0.332,0.59,0.744,0.309,1.055c-0.059,0.065-0.25,0.295-0.219,0.513c0.02,0.124,0.111,0.236,0.275,0.335
		c0.186,0.112,0.363,0.192,0.521,0.264c0.348,0.157,0.648,0.293,0.838,0.671c0.082,0.165,0.135,0.354,0.188,0.555
		c0.115,0.409,0.242,0.874,0.682,1.282c0.543,0.506,1.09,0.514,1.529,0.52c0.078,0.002,0.152,0.002,0.221,0.006
		c0.27,0.014,0.459,0.154,0.51,0.377c0.051,0.227-0.055,0.48-0.252,0.609c0.072,0.084,0.314,0.258,0.785,0.383
		c0.793,0.211,1.441,0.813,1.758,1.15c0.264,0.282,0.244,0.817,0.129,1.081c-0.096,0.219-0.242,0.252-0.318,0.252
		c-0.125,0-0.236-0.076-0.332-0.227c-0.299-0.471-0.834-0.977-1.152-0.742c-0.332,0.246-0.496,0.504-0.484,0.635
		c0.002,0.018,0.006,0.064,0.1,0.111c0.338,0.17,0.664,0.686,0.711,1.125c0.025,0.254-0.045,0.463-0.201,0.588
		c-0.129,0.104-0.275,0.334-0.416,0.557c-0.219,0.348-0.445,0.709-0.736,0.811c-0.195,0.068-0.412,0.025-0.555-0.016
		c-0.055-0.018-0.109-0.033-0.145-0.033c-0.018,0-0.055,0-0.117,0.098c-0.254,0.39-0.285,0.566-0.152,0.884
		c0.107,0.262,0.09,0.537-0.047,0.74c-0.115,0.174-0.305,0.27-0.529,0.27c-0.066,0-0.135-0.008-0.205-0.023
		c-0.4-0.092-1.273-0.627-1.972-1.059c-0.271-0.166-0.508-0.313-0.658-0.395c-0.291-0.16-0.422-0.488-0.332-0.839
		c0.104-0.402,0.441-0.658,0.832-0.596c0.234,0.037,0.406,0.113,0.574,0.188c0.281,0.125,0.551,0.242,1.145,0.17
		c0.635-0.076,1.391-0.379,1.652-0.887c0.146-0.289,0.117-0.625-0.09-0.998c-0.715-1.291-1.184-1.61-1.719-1.889
		c-0.725-0.379-2.277-1.287-2.964-2.021c-0.232-0.246-0.482-0.468-0.725-0.683c-0.502-0.446-0.975-0.866-1.135-1.396l-0.02-0.069
		c-0.203-0.679-0.338-1.127-0.955-1.395c-0.632-0.274-0.91-0.271-1.134,0.116c-0.223,0.383-0.865,0.627-1.211,0.627
		c-0.156,0-0.27-0.047-0.334-0.14c-0.031-0.045-0.076-0.143-0.023-0.282c0.033-0.086,0.006-0.129-0.191-0.307
		c-0.152-0.137-0.34-0.307-0.471-0.581C4.103,12.905,3.59,11.326,4.414,10.796z"/>
</g>
<g id="Livello_2">
</g>
</svg>
